<mxfile host="Electron" modified="2024-04-13T01:38:25.412Z" agent="Mozilla/5.0 (X11; Linux x86_64) AppleWebKit/537.36 (KHTML, like Gecko) draw.io/24.1.0 Chrome/120.0.6099.109 Electron/28.1.0 Safari/537.36" etag="bL1iuw7DzigY9nMP-fgl" version="24.1.0" type="device">
  <diagram name="第 1 页" id="Spz_60w4jZcsbdWRZQk3">
    <mxGraphModel dx="637" dy="776" grid="1" gridSize="10" guides="1" tooltips="1" connect="1" arrows="1" fold="1" page="1" pageScale="1" pageWidth="827" pageHeight="1169" math="0" shadow="0">
      <root>
        <mxCell id="0" />
        <mxCell id="1" parent="0" />
        <mxCell id="pLy6X_kwmbgSKDPia_D6-2" value="a" style="text;strokeColor=none;align=center;fillColor=none;html=1;verticalAlign=middle;whiteSpace=wrap;rounded=0;" parent="1" vertex="1">
          <mxGeometry x="320" y="575" width="10" height="10" as="geometry" />
        </mxCell>
        <mxCell id="pLy6X_kwmbgSKDPia_D6-3" value="b" style="text;strokeColor=none;align=center;fillColor=none;html=1;verticalAlign=middle;whiteSpace=wrap;rounded=0;" parent="1" vertex="1">
          <mxGeometry x="320" y="735" width="10" height="10" as="geometry" />
        </mxCell>
        <mxCell id="pLy6X_kwmbgSKDPia_D6-5" value="out" style="text;strokeColor=none;align=center;fillColor=none;html=1;verticalAlign=middle;whiteSpace=wrap;rounded=0;" parent="1" vertex="1">
          <mxGeometry x="685" y="635" width="20" height="10" as="geometry" />
        </mxCell>
        <mxCell id="BZsjgEw98n6IlcS7FpIR-1" value="" style="verticalLabelPosition=bottom;shadow=0;dashed=0;align=center;html=1;verticalAlign=top;shape=mxgraph.electrical.logic_gates.inverter_2;direction=south;" parent="1" vertex="1">
          <mxGeometry x="440" y="360" width="40" height="60" as="geometry" />
        </mxCell>
        <mxCell id="BZsjgEw98n6IlcS7FpIR-2" value="" style="verticalLabelPosition=bottom;shadow=0;dashed=0;align=center;html=1;verticalAlign=top;shape=mxgraph.electrical.logic_gates.logic_gate;operation=and;" parent="1" vertex="1">
          <mxGeometry x="400" y="520" width="120" height="80" as="geometry" />
        </mxCell>
        <mxCell id="BZsjgEw98n6IlcS7FpIR-23" style="edgeStyle=orthogonalEdgeStyle;rounded=0;orthogonalLoop=1;jettySize=auto;html=1;exitX=0;exitY=0.25;exitDx=0;exitDy=0;exitPerimeter=0;endArrow=none;endFill=0;" parent="1" source="BZsjgEw98n6IlcS7FpIR-3" edge="1">
          <mxGeometry relative="1" as="geometry">
            <mxPoint x="360" y="360" as="targetPoint" />
          </mxGeometry>
        </mxCell>
        <mxCell id="BZsjgEw98n6IlcS7FpIR-3" value="" style="verticalLabelPosition=bottom;shadow=0;dashed=0;align=center;html=1;verticalAlign=top;shape=mxgraph.electrical.logic_gates.logic_gate;operation=and;" parent="1" vertex="1">
          <mxGeometry x="400" y="680" width="120" height="80" as="geometry" />
        </mxCell>
        <mxCell id="BZsjgEw98n6IlcS7FpIR-4" value="" style="verticalLabelPosition=bottom;shadow=0;dashed=0;align=center;html=1;verticalAlign=top;shape=mxgraph.electrical.logic_gates.logic_gate;operation=or;" parent="1" vertex="1">
          <mxGeometry x="565" y="600" width="120" height="80" as="geometry" />
        </mxCell>
        <mxCell id="BZsjgEw98n6IlcS7FpIR-6" value="sel" style="text;strokeColor=none;align=center;fillColor=none;html=1;verticalAlign=middle;whiteSpace=wrap;rounded=0;" parent="1" vertex="1">
          <mxGeometry x="307.5" y="355" width="25" height="10" as="geometry" />
        </mxCell>
        <mxCell id="BZsjgEw98n6IlcS7FpIR-10" value="Notsel" style="edgeStyle=orthogonalEdgeStyle;rounded=0;orthogonalLoop=1;jettySize=auto;html=1;exitX=1;exitY=0.5;exitDx=0;exitDy=0;exitPerimeter=0;entryX=0;entryY=0.25;entryDx=0;entryDy=0;entryPerimeter=0;endArrow=none;endFill=0;" parent="1" source="BZsjgEw98n6IlcS7FpIR-1" target="BZsjgEw98n6IlcS7FpIR-2" edge="1">
          <mxGeometry relative="1" as="geometry">
            <Array as="points">
              <mxPoint x="380" y="480" />
              <mxPoint x="380" y="540" />
            </Array>
          </mxGeometry>
        </mxCell>
        <mxCell id="BZsjgEw98n6IlcS7FpIR-12" style="edgeStyle=orthogonalEdgeStyle;rounded=0;orthogonalLoop=1;jettySize=auto;html=1;entryX=0;entryY=0.75;entryDx=0;entryDy=0;entryPerimeter=0;endArrow=none;endFill=0;" parent="1" source="pLy6X_kwmbgSKDPia_D6-2" target="BZsjgEw98n6IlcS7FpIR-2" edge="1">
          <mxGeometry relative="1" as="geometry" />
        </mxCell>
        <mxCell id="BZsjgEw98n6IlcS7FpIR-13" style="edgeStyle=orthogonalEdgeStyle;rounded=0;orthogonalLoop=1;jettySize=auto;html=1;entryX=0;entryY=0.75;entryDx=0;entryDy=0;entryPerimeter=0;endArrow=none;endFill=0;" parent="1" source="pLy6X_kwmbgSKDPia_D6-3" target="BZsjgEw98n6IlcS7FpIR-3" edge="1">
          <mxGeometry relative="1" as="geometry" />
        </mxCell>
        <mxCell id="BZsjgEw98n6IlcS7FpIR-14" value="aAndNotsel" style="edgeStyle=orthogonalEdgeStyle;rounded=0;orthogonalLoop=1;jettySize=auto;html=1;entryX=0;entryY=0.25;entryDx=0;entryDy=0;entryPerimeter=0;endArrow=none;endFill=0;" parent="1" source="BZsjgEw98n6IlcS7FpIR-2" target="BZsjgEw98n6IlcS7FpIR-4" edge="1">
          <mxGeometry relative="1" as="geometry" />
        </mxCell>
        <mxCell id="BZsjgEw98n6IlcS7FpIR-15" value="bAndsel" style="edgeStyle=orthogonalEdgeStyle;rounded=0;orthogonalLoop=1;jettySize=auto;html=1;exitX=1;exitY=0.5;exitDx=0;exitDy=0;exitPerimeter=0;entryX=0;entryY=0.75;entryDx=0;entryDy=0;entryPerimeter=0;endArrow=none;endFill=0;" parent="1" source="BZsjgEw98n6IlcS7FpIR-3" target="BZsjgEw98n6IlcS7FpIR-4" edge="1">
          <mxGeometry relative="1" as="geometry" />
        </mxCell>
        <mxCell id="BZsjgEw98n6IlcS7FpIR-24" value="" style="ellipse;whiteSpace=wrap;html=1;aspect=fixed;" parent="1" vertex="1">
          <mxGeometry x="357.5" y="357.5" width="5" height="5" as="geometry" />
        </mxCell>
        <mxCell id="oSleraervePYBZz56XlQ-1" style="edgeStyle=orthogonalEdgeStyle;rounded=0;orthogonalLoop=1;jettySize=auto;html=1;entryX=0;entryY=0.5;entryDx=0;entryDy=0;entryPerimeter=0;endArrow=none;endFill=0;" edge="1" parent="1" source="BZsjgEw98n6IlcS7FpIR-6" target="BZsjgEw98n6IlcS7FpIR-1">
          <mxGeometry relative="1" as="geometry">
            <Array as="points">
              <mxPoint x="420" y="360" />
              <mxPoint x="420" y="360" />
            </Array>
          </mxGeometry>
        </mxCell>
      </root>
    </mxGraphModel>
  </diagram>
</mxfile>
